# xmcd
#
# Track frame offsets:
#	150
#	21894
#	40433
#	54104
#	74754
#	95051
#	115534
#	130615
#	152518
#	171946
#
# Disc length: 2555 seconds
#
# Revision: 1
# Processed by: cddbd v1.5.2PL0 Copyright (c) Steve Scherf et al.
# Submitted via: audiograbber 1.83.01
#
DISCID=7f09f90a
DTITLE=Lilly West - Greetings From Austin, Texas
DYEAR=2008
DGENRE=Country
TTITLE0=Une Belle Journée(Lilly West-Lilly West)
TTITLE1=Route 66(Bobby TROUP)
TTITLE2=My Own Sweet Mum(Lilly West-Lilly West)
TTITLE3=Life Goes On(Lilly West-Lilly West)
TTITLE4=Je T'aime Comme Tu Es(Lilly West-Lilly West)
TTITLE5=Riders In The Sky(Stan Jones-Stan Jones)
TTITLE6=She Needs Help(Lilly West-Lilly West)
TTITLE7=Mud On The Tires(Brad Paisley-Chris Dubois)
TTITLE8=Stop Promissing(Lilly West-Lilly West)
TTITLE9=Holding Out For A Hero(Jim Steinman-Dean Pitchford)
EXTD=
EXTT0=
EXTT1=
EXTT2=
EXTT3=
EXTT4=
EXTT5=
EXTT6=
EXTT7=
EXTT8=
EXTT9=
PLAYORDER=
